#!Matlab matrix to amc conversion
:FULLY-SPECIFIED
:DEGREES
1
root 9.287220 16.950000 -34.276200 0.000000 0.000000 0.000000
lowerback 0.000000 0.000000 0.000000
upperback 0.000000 0.000000 0.000000
thorax 0.000000 0.000000 0.000000
lowerneck -16.000000 0.000000 0.000000
upperneck 21.000000 0.000000 0.000000
head 11.000000 0.000000 0.000000
rclavicle 0.000000 0.000000
rhumerus 0.000000 0.000000 0.000000
rradius 0.000000
rwrist 0.000000
rhand 0.000000 0.000000
rfingers 0.000000
rthumb 0.000000 0.000000
lclavicle 0.000000 0.000000
lhumerus 0.000000 0.000000 0.000000
lradius 0.000000
lwrist 0.000000
lhand 0.000000 0.000000
lfingers 0.000000
lthumb 0.000000 0.000000
rfemur 0.000000 0.000000 21.000000
rtibia 0.000000
rfoot 0.000000 0.000000
rtoes 0.000000
lfemur 0.000000 0.000000 -21.000000
ltibia 0.000000
lfoot 0.000000 0.000000
ltoes 0.000000
2
root 9.287220 16.950000 -34.276200 1.635246 1.634016 -0.016649
lowerback 6.119063 -1.052296 -2.709340
upperback 1.223079 -1.595614 0.740732
thorax -1.984568 -0.768410 2.427035
lowerneck -9.482428 5.709256 1.645587
upperneck 10.531840 7.655878 -2.657734
head 5.429201 3.717809 -0.722837
rclavicle -0.000000 0.000000
rhumerus -40.766249 -12.210648 -77.193792
rradius 19.997994
rwrist -2.478012
rhand -17.940939 15.623964
rfingers 7.125020
rthumb 8.299341 -14.163416
lclavicle -0.000000 0.000000
lhumerus -29.634236 -0.958727 86.518040
lradius 56.751339
lwrist 23.242232
lhand -21.357086 18.908485
lfingers 7.125020
lthumb 4.995323 48.746989
rfemur -24.493311 4.385164 17.171796
rtibia 39.042424
rfoot -13.757728 -14.683142
rtoes -13.663056
lfemur 2.655832 -4.482959 -29.022736
ltibia 22.458605
lfoot -18.268417 9.160617
ltoes -5.691047
3
root 9.273270 17.016600 -33.905900 1.420598 1.634016 0.294329
lowerback 6.019170 -1.292388 -3.218854
upperback 1.248254 -1.945655 0.793017
thorax -1.879620 -0.938292 2.786649
lowerneck -9.792950 5.507090 1.450802
upperneck 10.445044 7.399085 -2.535939
head 5.446019 3.580100 -0.660099
rclavicle -0.000000 0.000000
rhumerus -43.099272 -15.749781 -74.473669
rradius 17.716224
rwrist 0.076555
rhand -17.794302 16.095279
rfingers 7.125020
rthumb 8.444845 -13.695079
lclavicle -0.000000 0.000000
lhumerus -28.777132 -2.796827 86.623477
lradius 60.782641
lwrist 23.500637
lhand -22.152036 17.275429
lfingers 7.125020
lthumb 4.245355 47.123974
rfemur -25.722202 5.924167 15.649256
rtibia 31.304769
rfoot -15.143764 -14.776221
rtoes -13.472686
lfemur 6.256288 -4.861287 -29.464849
ltibia 19.346324
lfoot -17.721302 8.661496
ltoes -6.909992
4
root 9.268420 17.025800 -33.555600 1.401504 1.634016 0.090659
lowerback 5.743880 -1.513709 -3.243728
upperback 1.221913 -2.218947 0.935482
thorax -1.729629 -1.079464 2.938377
lowerneck -10.232093 5.259723 1.289948
upperneck 10.516774 7.113774 -2.718511
head 5.558039 3.415843 -0.699673
rclavicle -0.000000 0.000000
rhumerus -45.848861 -17.964951 -70.974548
rradius 16.538140
rwrist 3.407506
rhand -17.379499 15.110624
rfingers 7.125020
rthumb 8.850775 -14.684609
lclavicle -0.000000 0.000000
lhumerus -29.346165 -2.804495 86.635086
lradius 62.063504
lwrist 23.396232
lhand -22.445643 17.033977
lfingers 7.125020
lthumb 3.963438 46.886760
rfemur -25.919350 5.615319 16.025907
rtibia 27.922150
rfoot -15.275863 -14.651255
rtoes -13.898653
lfemur 9.478093 -4.778233 -29.150989
ltibia 17.200474
lfoot -16.403929 8.119614
ltoes -9.492755
5
root 9.249270 17.016300 -33.220600 1.389176 1.634016 0.008164
lowerback 5.477301 -1.713033 -3.247455
upperback 1.192237 -2.467050 1.054184
thorax -1.596411 -1.207835 3.065369
lowerneck -10.628094 5.014893 1.140218
upperneck 10.598739 6.831319 -2.890366
head 5.672403 3.253253 -0.736004
rclavicle -0.000000 0.000000
rhumerus -48.065062 -19.717960 -68.089828
rradius 15.505730
rwrist 6.223417
rhand -16.975611 14.435863
rfingers 7.125020
rthumb 9.246010 -15.318254
lclavicle -0.000000 0.000000
lhumerus -29.883845 -2.777564 86.632329
lradius 63.151422
lwrist 23.265497
lhand -22.700829 16.852034
lfingers 7.125020
lthumb 3.718429 46.709698
rfemur -26.083044 5.486671 16.342545
rtibia 26.622759
rfoot -15.271904 -14.604495
rtoes -14.024081
lfemur 12.278482 -4.702886 -28.861954
ltibia 15.849953
lfoot -15.336365 7.592616
ltoes -11.508849
6
root 9.246830 17.017700 -32.897400 1.379758 1.634016 -0.038215
lowerback 5.215604 -1.898864 -3.230673
upperback 1.158349 -2.699376 1.162155
thorax -1.475460 -1.328087 3.176467
lowerneck -11.005547 4.769512 0.994573
upperneck 10.691739 6.548018 -3.057734
head 5.790396 3.090361 -0.771783
rclavicle -0.000000 0.000000
rhumerus -49.984852 -21.206223 -65.559159
rradius 14.572627
rwrist 8.725522
rhand -16.575337 13.903182
rfingers 7.125020
rthumb 9.637689 -15.792746
lclavicle -0.000000 0.000000
lhumerus -30.450546 -2.715560 86.615149
lradius 64.089895
lwrist 23.105923
lhand -22.924640 16.722835
lfingers 7.125020
lthumb 3.503562 46.586114
rfemur -26.219827 5.506816 16.685250
rtibia 26.119921
rfoot -15.130981 -14.627959
rtoes -13.870833
lfemur 14.821930 -4.629860 -28.568703
ltibia 15.022443
lfoot -14.374997 7.074621
ltoes -13.310179
7
root 9.219480 17.016100 -32.563300 1.370305 1.634016 -0.096298
lowerback 4.955025 -2.079129 -3.190500
upperback 1.119244 -2.924736 1.271252
thorax -1.362687 -1.444603 3.279409
lowerneck -11.387895 4.520488 0.846165
upperneck 10.796684 6.260164 -3.226679
head 5.913339 2.925194 -0.809657
rclavicle -0.000000 0.000000
rhumerus -51.813511 -22.597342 -63.154145
rradius 13.696922
rwrist 11.092632
rhand -16.171442 13.380108
rfingers 7.125020
rthumb 10.032887 -16.255409
lclavicle -0.000000 0.000000
lhumerus -31.109900 -2.617396 86.583202
lradius 64.916446
lwrist 22.914446
lhand -23.123254 16.641575
lfingers 7.125020
lthumb 3.312906 46.511350
rfemur -26.335162 5.680673 17.147190
rtibia 25.915718
rfoot -14.820823 -14.725653
rtoes -13.412198
lfemur 17.257821 -4.553934 -28.241771
ltibia 14.551085
lfoot -13.390498 6.559851
ltoes -15.211167
8
root 9.210440 16.998300 -32.235300 1.357858 1.634016 -0.225975
lowerback 4.691820 -2.261519 -3.120030
upperback 1.073768 -3.151679 1.393455
thorax -1.254276 -1.561631 3.381362
lowerneck -11.798883 4.264681 0.688016
upperneck 10.914598 5.963985 -3.403326
head 6.042614 2.755751 -0.852431
rclavicle -0.000000 0.000000
rhumerus -53.746576 -24.047976 -60.657731
rradius 12.839284
rwrist 13.493907
rhand -15.756626 12.736550
rfingers 7.125020
rthumb 10.438743 -16.849889
lclavicle -0.000000 0.000000
lhumerus -31.935943 -2.481352 86.535846
lradius 65.664126
lwrist 22.687393
lhand -23.302154 16.605234
lfingers 7.125020
lthumb 3.141198 46.482590
rfemur -26.433658 6.050683 17.853944
rtibia 25.807945
rfoot -14.270401 -14.914251
rtoes -12.568236
lfemur 19.729222 -4.469680 -27.848309
ltibia 14.340834
lfoot -12.250429 6.042562
ltoes -17.543627
9
root 9.216220 16.950400 -31.922700 1.312810 1.634016 -0.133591
lowerback 4.658241 -2.225876 -1.592765
upperback 0.971387 -3.031250 1.846222
thorax -1.385231 -1.504020 3.009607
lowerneck -11.714506 4.175145 0.680460
upperneck 10.841129 5.874448 -3.666887
head 6.018217 2.698224 -0.951412
rclavicle -0.000000 0.000000
rhumerus -53.101211 -24.422165 -60.377275
rradius 12.821382
rwrist 13.703471
rhand -15.455485 12.708462
rfingers 7.125020
rthumb 10.729547 -16.883488
lclavicle -0.000000 0.000000
lhumerus -34.253848 -0.177692 86.333918
lradius 60.849437
lwrist 21.548168
lhand -22.208189 17.410493
lfingers 7.125020
lthumb 4.199203 47.242223
rfemur -25.135912 6.382411 20.513692
rtibia 29.721111
rfoot -12.860219 -13.683644
rtoes -5.169472
lfemur 16.842438 -3.209124 -25.338899
ltibia 24.230635
lfoot -7.559675 5.111212
ltoes -20.259247
10
root 9.215440 16.883800 -31.609400 1.284648 1.634016 -0.052885
lowerback 4.627911 -2.193322 -0.172002
upperback 0.885894 -2.916640 2.278084
thorax -1.501310 -1.449870 2.647489
lowerneck -11.590562 4.092381 0.678733
upperneck 10.737443 5.793301 -3.894962
head 5.979951 2.645263 -1.031548
rclavicle -0.000000 0.000000
rhumerus -52.561075 -24.851422 -60.058780
rradius 12.761167
rwrist 13.944395
rhand -15.177297 12.750157
rfingers 7.125020
rthumb 10.998384 -16.850467
lclavicle -0.000000 0.000000
lhumerus -36.345798 2.049222 86.166134
lradius 56.314003
lwrist 20.485927
lhand -21.158745 18.186434
lfingers 7.125020
lthumb 5.214391 47.974601
rfemur -23.846262 6.629800 23.065320
rtibia 32.896236
rfoot -11.934992 -12.456669
rtoes 1.139362
lfemur 14.033932 -1.959491 -22.956118
ltibia 33.627451
lfoot -3.032186 4.185662
ltoes -21.934876
11
root 9.209070 16.808800 -31.290400 1.252919 1.634016 -0.032436
lowerback 5.044366 -2.000593 0.540982
upperback 0.951279 -2.606654 2.277061
thorax -1.707217 -1.301706 2.254721
lowerneck -11.504632 3.643759 0.378916
upperneck 10.367005 5.186235 -3.336890
head 5.785486 2.371383 -0.849699
rclavicle -0.000000 0.000000
rhumerus -48.772254 -23.353208 -64.390397
rradius 14.135782
rwrist 9.959990
rhand -16.135075 13.693641
rfingers 7.125020
rthumb 10.074901 -15.971862
lclavicle -0.000000 0.000000
lhumerus -36.623356 4.598900 85.303629
lradius 48.193725
lwrist 19.316366
lhand -19.996782 19.575890
lfingers 7.125020
lthumb 6.334116 49.327684
rfemur -21.320996 6.732675 24.661248
rtibia 33.770132
rfoot -13.501657 -12.259206
rtoes 2.409855
lfemur 7.142272 -0.660202 -21.416036
ltibia 44.901873
lfoot 2.098333 7.461984
ltoes -19.184577
12
root 9.207290 16.715600 -30.974900 1.232650 1.634016 -0.029783
lowerback 5.457766 -1.810868 1.224320
upperback 1.017914 -2.301645 2.266160
thorax -1.904812 -1.155734 1.865632
lowerneck -11.420515 3.207207 0.096992
upperneck 10.000473 4.602136 -2.864324
head 5.592736 2.105083 -0.695579
rclavicle -0.000000 0.000000
rhumerus -45.356406 -21.925893 -68.469692
rradius 15.456171
rwrist 6.161941
rhand -17.079529 14.369688
rfingers 7.125020
rthumb 9.164494 -15.343717
lclavicle -0.000000 0.000000
lhumerus -36.823609 7.049958 84.456071
lradius 40.928454
lwrist 18.176991
lhand -18.875816 20.913577
lfingers 7.125020
lthumb 7.414231 50.629713
rfemur -18.966612 6.806008 26.065115
rtibia 34.274621
rfoot -15.013565 -12.050566
rtoes 3.485906
lfemur 0.699031 0.546328 -20.077676
ltibia 54.872926
lfoot 5.686414 10.602196
ltoes -16.954173
13
root 9.205450 16.618500 -30.655100 1.216463 1.634016 -0.042327
lowerback 5.872855 -1.615709 1.928422
upperback 1.088229 -1.987894 2.244515
thorax -2.099454 -1.005229 1.463415
lowerneck -11.330093 2.769319 -0.187252
upperneck 9.633523 4.015238 -2.373616
head 5.399120 1.837918 -0.535071
rclavicle -0.000000 0.000000
rhumerus -41.885541 -20.447048 -72.621264
rradius 16.800963
rwrist 2.293963
rhand -18.036872 15.039435
rfingers 7.125020
rthumb 8.241919 -14.718058
lclavicle -0.000000 0.000000
lhumerus -36.959934 9.495601 83.591085
lradius 33.647752
lwrist 16.988829
lhand -17.759857 22.227586
lfingers 7.125020
lthumb 8.489429 51.907911
rfemur -16.597910 6.853716 27.448606
rtibia 34.530196
rfoot -16.568568 -11.815441
rtoes 4.450780
lfemur -5.770465 1.758156 -18.787961
ltibia 64.635395
lfoot 8.460450 13.834014
ltoes -14.150849
